PathFileType  4	(X/Y/Z) C:\Users\antoi\Documents\MyRepositories\mobilecap\ResultsAnalysis
DataRate	CameraRate	NumFrames	NumMarkers	Units	OrigDataRate	OrigDataStartFrame	OrigNumFrames
100.0	100.0	4	51	mm	100.0	17	132
Frame#	Time	r_knee			r_shank_antsup			r_ankle			r_calc			r_5meta			r_toe			L_knee			L_shank_antsup			L_ankle			L_calc			L_5meta			L_toe			r_sh2			r_sh3			r_sh4			L_sh2			L_sh3			r_thigh1			r_thigh2			r_thigh3			r_thigh4			r_thigh5			L_thigh1			L_thigh2			L_thigh3			L_thigh4			r.ASIS			r.PSIS			L.ASIS			L.PSIS			C7			R_Shoulder			L_Shoulder			R_Sternum			L_Sternum			R_humerus			R_elbow_med			R_elbow_lat			R_forearm			R_wrist_radius			R_wrist_ulna			L_humerus			L_elbow_med			L_elbow_lat			L_forearm			L_wrist_radius			L_wrist_ulna			R_HJC			L_HJC			R_HJC_reg			L_HJC_reg			
		X1	Y1	Z1	X2	Y2	Z2	X3	Y3	Z3	X4	Y4	Z4	X5	Y5	Z5	X6	Y6	Z6	X7	Y7	Z7	X8	Y8	Z8	X9	Y9	Z9	X10	Y10	Z10	X11	Y11	Z11	X12	Y12	Z12	X13	Y13	Z13	X14	Y14	Z14	X15	Y15	Z15	X16	Y16	Z16	X17	Y17	Z17	X18	Y18	Z18	X19	Y19	Z19	X20	Y20	Z20	X21	Y21	Z21	X22	Y22	Z22	X23	Y23	Z23	X24	Y24	Z24	X25	Y25	Z25	X26	Y26	Z26	X27	Y27	Z27	X28	Y28	Z28	X29	Y29	Z29	X30	Y30	Z30	X31	Y31	Z31	X32	Y32	Z32	X33	Y33	Z33	X34	Y34	Z34	X35	Y35	Z35	X36	Y36	Z36	X37	Y37	Z37	X38	Y38	Z38	X39	Y39	Z39	X40	Y40	Z40	X41	Y41	Z41	X42	Y42	Z42	X43	Y43	Z43	X44	Y44	Z44	X45	Y45	Z45	X46	Y46	Z46	X47	Y47	Z47	X48	Y48	Z48	X49	Y49	Z49	X50	Y50	Z50	X51	Y51	Z51	

17	0.16000000	139.99244	495.33843	-127.85957	187.16862	402.60140	-143.30867	127.16915	88.40932	-178.37786	72.48769	58.32963	-235.58177	244.40404	44.70670	-132.35662	282.51145	74.87419	-185.49102	31.64508	457.77045	-405.86783	-2.48673	368.83016	-393.70969	-314.00099	245.88886	-392.85251	-373.26262	298.96104	-339.26982	-346.22547	122.90503	-422.86107	-299.81164	89.90998	-372.21564	188.62962	290.29653	-155.76621	124.72544	396.49938	-101.24711	118.60041	281.90575	-109.61462	-34.65106	442.78126	-428.91728	-141.05247	383.57556	-437.78927	109.69162	777.43995	-88.16858	148.44714	674.94991	-110.60805	109.07416	629.43159	-78.19830	8.58080	733.40017	-65.56100	52.85858	629.67296	-90.16677	95.66091	710.55418	-413.00478	118.88211	573.70982	-394.03094	-6.02183	689.09122	-448.36455	13.52229	559.71549	-419.42927	93.05525	954.32592	-130.02166	-115.41441	970.94535	-219.32112	95.57971	933.61927	-382.95799	-107.78316	963.85919	-314.57787	-98.20940	1428.00915	-246.52490	-39.83375	1394.45323	-79.05241	-10.49277	1405.81603	-396.48694	31.46618	1361.92977	-216.30748	32.47043	1365.52092	-262.56354	-6.10697	1261.85460	-28.30207	-87.86557	1063.99542	-87.61819	-88.31105	1073.04592	-18.67382	-42.96040	1007.11720	10.65433	-3.98662	838.44644	-10.70166	-44.92503	842.83682	22.24407	33.29755	1272.64536	-459.11943	-8.64928	1066.86761	-410.82404	13.24800	1079.20854	-486.75444	77.52746	1035.64162	-491.60423	166.20877	884.02744	-456.93716	137.63307	876.98668	-498.32204	12.19157	861.77442	-151.17172	18.72058	847.23006	-340.07017	18.59649	870.38886	-165.46721	31.93375	857.99712	-332.00229	
18	0.17000000	144.88717	495.23393	-126.92229	190.58232	401.93861	-142.07650	127.36166	88.51706	-178.52284	72.65100	58.47120	-235.66081	244.50625	44.60722	-132.25985	282.71098	74.42763	-185.52237	58.83714	461.08839	-403.71610	25.65062	371.85601	-391.09206	-285.65613	249.18893	-391.10508	-347.40240	299.93764	-337.98819	-312.75707	126.09127	-422.61566	-266.56592	94.05586	-371.26184	190.72336	289.68562	-154.85656	127.67918	396.57047	-100.68233	120.14332	282.05286	-109.41412	-6.41724	445.89541	-426.36320	-112.80475	386.73080	-435.44336	119.70005	778.07530	-87.03551	156.81556	674.87683	-109.77231	116.74852	629.97811	-77.16095	18.01197	735.46576	-64.24632	60.33025	630.89467	-89.16320	114.26124	715.04994	-410.44297	141.56047	578.90805	-391.34326	13.44891	690.43106	-446.52995	37.01584	561.73257	-417.47872	105.28924	956.01114	-128.86443	-103.14462	973.53423	-217.17972	107.63880	936.35070	-381.95483	-95.82549	966.29815	-312.26658	-85.33136	1430.68895	-244.96126	-25.98370	1396.96922	-77.74691	1.51072	1408.36432	-395.56037	44.30401	1364.37244	-215.41972	45.28843	1367.97703	-261.64141	9.25061	1264.42564	-27.59792	-72.01980	1065.79632	-85.06841	-71.37878	1074.97405	-16.16222	-24.43592	1009.60339	12.32054	16.76702	841.60242	-9.60742	-23.68724	845.34858	23.96142	44.33588	1274.64527	-458.26393	0.67111	1069.25436	-409.20823	22.47976	1081.38487	-485.25061	85.14076	1035.87314	-490.90650	168.00153	880.34056	-458.23337	138.95998	874.93949	-499.64355	24.55375	863.70183	-149.94117	30.46749	849.85702	-338.90218	30.62143	873.06691	-164.06059	43.43907	860.39487	-330.65608	
19	0.18000000	149.47694	495.19408	-126.05505	193.73313	401.38516	-140.89494	127.57289	88.63330	-178.61388	72.80247	58.62999	-235.73519	244.58358	44.52137	-132.16108	282.88311	74.08978	-185.49289	85.69433	465.22306	-401.41425	53.78474	375.46442	-388.39160	-256.56204	251.01800	-389.20740	-321.27993	299.11468	-336.75669	-277.73701	127.76177	-422.08281	-231.51212	97.15088	-369.98195	192.58883	289.19045	-153.96615	130.38805	396.73338	-100.13524	121.51037	282.29957	-109.18321	21.36266	449.41841	-423.82518	-84.64384	389.73705	-433.07222	129.45281	778.69651	-85.93433	164.84513	674.79280	-108.99567	124.06040	630.50888	-76.17912	27.28083	737.46616	-63.08842	67.56312	632.11768	-88.22069	132.60367	720.01899	-407.82004	163.81675	584.70530	-388.53608	32.70569	692.37044	-444.72558	60.17818	564.43941	-415.51055	117.36809	957.60759	-127.76085	-91.03002	976.20039	-214.82765	119.47474	939.28687	-381.05720	-84.09327	969.11738	-309.83452	-72.53415	1433.49480	-243.52868	-12.27809	1399.64451	-76.57797	13.47418	1410.98486	-394.72659	56.99984	1366.89066	-214.66061	57.95924	1370.49842	-260.84671	24.42883	1267.20427	-27.01189	-56.20301	1067.75405	-82.52171	-54.47800	1077.10576	-13.66813	-5.84027	1012.34975	13.91732	37.67706	845.09052	-8.54965	-2.25848	848.18434	25.65666	55.32819	1276.70828	-457.46867	9.79209	1071.70509	-407.81060	31.61258	1083.69996	-483.95984	92.61662	1036.38078	-490.32176	169.51548	877.17708	-459.63382	140.14191	873.45477	-501.11211	36.72860	865.59646	-148.82266	41.89104	852.72645	-337.86692	42.56579	875.47039	-162.89356	54.73422	863.05015	-329.61561	
20	0.19000000	153.79331	495.21771	-125.24101	196.69401	400.93089	-139.80432	127.78767	88.73948	-178.65303	72.90431	58.80245	-235.77781	244.63635	44.43665	-132.06310	283.03099	73.84250	-185.41158	112.19812	470.02481	-398.95209	81.90891	379.54405	-385.59550	-226.86154	251.37201	-387.26430	-294.66257	296.60259	-335.55925	-241.75419	127.99291	-421.22253	-195.23599	99.14389	-368.43348	194.30991	288.79679	-153.13575	132.96512	396.96455	-99.58343	122.82705	282.62359	-108.89982	48.67391	453.21720	-421.33956	-56.52647	392.40615	-430.78601	138.95763	779.25521	-84.81232	172.54168	674.65119	-108.21147	131.01563	631.00424	-75.23967	36.38078	739.37903	-62.10835	74.56480	633.39387	-87.33137	150.64737	725.37428	-405.19910	185.63418	591.00792	-385.64883	51.70459	694.79364	-442.97815	82.95348	567.72114	-413.57867	129.30930	959.17289	-126.63770	-79.05519	978.93973	-212.39725	131.13426	942.39842	-380.15709	-72.52644	972.25386	-307.40872	-59.82816	1436.38332	-242.21330	1.26412	1402.46688	-75.53578	25.42675	1413.66276	-393.93858	69.56254	1369.46048	-213.99888	70.45592	1373.05552	-260.15920	39.37775	1270.20793	-26.50415	-40.40802	1069.89024	-79.99010	-37.64236	1079.44817	-11.20662	12.76918	1015.36585	15.44763	58.68274	848.93182	-7.51815	19.29049	851.35265	27.31025	66.28385	1278.82768	-456.70090	18.71488	1074.26293	-406.58588	40.57397	1086.15260	-482.85601	99.91580	1037.16453	-489.86153	170.80045	874.59685	-461.13832	141.23500	872.56762	-502.72500	48.69888	867.50197	-147.78231	53.09334	855.79985	-336.91880	54.42268	877.67265	-161.87134	65.88863	865.93682	-328.75772	
